:version 1.10
:name ASF
:units
  mass 1
  length 1
  angle deg
:documentation
  ASF file generated by Kaydara
:root
  axis xyz
  order  tx ty tz rx ry rz
  position 0 0 0
  orientation 0 0 0
:bonedata
  begin
    id 1
    name LeftUpLegDummy
    direction 1 -2.30186e-007 -8.31532e-007
    length 2.93387
    axis 0 0 0 xyz
  end
  begin
    id 2
    name LeftUpLeg
    direction -1.82929e-007 -1 -1.48925e-009
    length 17.3336
    axis -3.48766 0.00143442 -0.000521554 xyz
    dof rx ry rz
  end
  begin
    id 3
    name LeftLeg
    direction -1.82929e-007 -1 -5.23717e-011
    length 14.9995
    axis 3.68178 -0.00654042 -0.000282425 xyz
    dof rx ry rz
  end
  begin
    id 4
    name LeftFoot
    direction 8.31532e-007 -4.54534e-011 1
    length 6.74421
    axis 1.87234e-006 4.66016e-005 -5.96866e-006 xyz
    dof rx ry rz
  end
  begin
    id 5
    name LeftToes
    direction 0.00818058 -0.00485161 0.999955
    length 3.85048
    axis 1.06247e-005 4.65869e-005 -5.96999e-006 xyz
    dof rx ry rz
  end
  begin
    id 6
    name SpineDummy
    direction -5.8607e-008 0.943407 -0.331637
    length 5.93572
    axis 0 0 0 xyz
  end
  begin
    id 7
    name Spine
    direction -1.04988e-007 0.999988 0.00495137
    length 10.1015
    axis -0.001389 0.000121417 6.61666e-006 xyz
    dof rx ry rz
  end
  begin
    id 8
    name Spine1
    direction 0 0 0
    length 0
    axis -0.001389 0.00012144 6.56766e-006 xyz
    dof rx ry rz
  end
  begin
    id 9
    name RightShoulderDummy
    direction -0.98348 0.17941 -0.0240696
    length 3.59882
    axis -0.001389 0.00012144 6.56766e-006 xyz
  end
  begin
    id 10
    name RightShoulder
    direction -0.978693 0.204882 0.0135597
    length 2.70001
    axis 0.215806 0.000203631 -0.00679732 xyz
    dof rx ry rz
  end
  begin
    id 11
    name RightArm
    direction -1 3.85509e-006 8.31394e-007
    length 10.2459
    axis -23.2009 -0.134239 -0.964098 xyz
    dof rx ry rz
  end
  begin
    id 12
    name RightForeArm
    direction -1 3.85569e-006 8.3129e-007
    length 8.16799
    axis -9.92322 0.0658061 0.17887 xyz
    dof rx ry rz
  end
  begin
    id 13
    name RightHand
    direction -0.992843 -0.0414604 0.112003
    length 5.28593
    axis -0.00960638 0.00330669 -0.185225 xyz
    dof rx ry rz
  end
  begin
    id 14
    name LeftShoulder1Dummy
    direction 0.983523 0.179172 -0.0240748
    length 3.59866
    axis -0.001389 0.00012144 6.56766e-006 xyz
  end
  begin
    id 15
    name LeftShoulder1
    direction 0.978627 0.205195 0.0135605
    length 2.70019
    axis -0.001389 0.00012144 6.57583e-006 xyz
    dof rx ry rz
  end
  begin
    id 16
    name LeftArm
    direction 1 3.51895e-006 -8.60188e-007
    length 10.2459
    axis -23.1894 0.134785 0.967513 xyz
    dof rx ry rz
  end
  begin
    id 17
    name LeftForeArm
    direction 1 3.51921e-006 -7.32029e-007
    length 8.16799
    axis -9.91835 -0.0656957 -0.177789 xyz
    dof rx ry rz
  end
  begin
    id 18
    name LeftHand
    direction 0.992938 -0.0411636 0.11126
    length 5.32135
    axis -0.00960237 -0.00340661 0.185177 xyz
    dof rx ry rz
  end
  begin
    id 19
    name HEadDummy
    direction 1.01974e-006 0.999861 -0.016675
    length 2.99946
    axis -0.001389 0.00012144 6.56766e-006 xyz
  end
  begin
    id 20
    name HEad
    direction -0.0222689 0.980941 0.193023
    length 5.12695
    axis -0.001389 0.00012144 6.56766e-006 xyz
    dof rx ry rz
  end
  begin
    id 21
    name RightUpLegDummy
    direction -1 2.30186e-007 8.31532e-007
    length 2.93387
    axis 0 0 0 xyz
  end
  begin
    id 22
    name RightUpLeg
    direction -1.82966e-007 -1 1.56832e-007
    length 17.3336
    axis -3.4909 -0.000906625 0.00028951 xyz
    dof rx ry rz
  end
  begin
    id 23
    name RightLeg
    direction -1.82786e-007 -1 -1.80317e-007
    length 14.9995
    axis 3.68513 0.0193739 -0.131021 xyz
    dof rx ry rz
  end
  begin
    id 24
    name RightFoot
    direction 8.31721e-007 -4.63324e-011 1
    length 6.74421
    axis 4.81691e-005 -0.120479 -0.188785 xyz
    dof rx ry rz
  end
  begin
    id 25
    name RightToes
    direction 0.00124746 -0.014064 0.9999
    length 3.85082
    axis 0.000481921 0.542163 -0.142575 xyz
    dof rx ry rz
  end
:hierarchy
  begin
    root LeftUpLegDummy SpineDummy RightUpLegDummy
    LeftUpLegDummy LeftUpLeg
    LeftUpLeg LeftLeg
    LeftLeg LeftFoot
    LeftFoot LeftToes
    SpineDummy Spine
    Spine Spine1
    Spine1 RightShoulderDummy LeftShoulder1Dummy HEadDummy
    RightShoulderDummy RightShoulder
    RightShoulder RightArm
    RightArm RightForeArm
    RightForeArm RightHand
    LeftShoulder1Dummy LeftShoulder1
    LeftShoulder1 LeftArm
    LeftArm LeftForeArm
    LeftForeArm LeftHand
    HEadDummy HEad
    RightUpLegDummy RightUpLeg
    RightUpLeg RightLeg
    RightLeg RightFoot
    RightFoot RightToes
  end

:SAMPLES-PER-SECOND 30
:FULLY-SPECIFIED
:DEGREES
18
root  -13.1388 33.6205 -29.5284 3.73314 24.0844 -2.29955
LeftUpLeg  -6.5396 8.73374 10.9053
LeftLeg  17.8098 9.33514 2.33594
LeftFoot  -9.24158 -0.127419 -1.57643
LeftToes  -21.9812 1.92152e-006 4.03786e-008
Spine  0.919794 -0.0126382 0.858575
Spine1  1.65144 -0.175394 1.88621
RightShoulder  0.0280034 4.1366 5.63587
RightArm  -33.8192 -21.7654 72.5112
RightForeArm  31.3365 19.135 3.5002
RightHand  0.88894 -11.2902 -8.60009
LeftShoulder1  0.0251315 0.93256 -10.8217
LeftArm  -17.7656 12.4759 -66.7352
LeftForeArm  28.0762 -15.7383 -2.84257
LeftHand  0.0804856 3.06132 2.44542
HEad  -6.05042 -12.7772 -2.74142
RightUpLeg  -8.36559 -7.62599 6.55104
RightLeg  14.3606 5.0849 0.958458
RightFoot  -6.28245 -0.0505553 -0.543696
RightToes  -14.6713 -0.0548248 -0.134367
19
root  -13.1384 33.6152 -29.3071 4.13624 23.9463 -2.04201
LeftUpLeg  -6.20277 8.56493 10.7748
LeftLeg  17.3341 9.53431 2.3019
LeftFoot  -9.58191 -0.139474 -1.66399
LeftToes  -21.5173 1.92152e-006 4.03786e-008
Spine  0.75671 -0.173359 0.833349
Spine1  1.32872 -0.494576 1.83478
RightShoulder  0.0269286 3.78043 5.7664
RightArm  -33.7758 -23.0442 72.2092
RightForeArm  31.4787 19.1368 3.50045
RightHand  0.874979 -11.2729 -8.47334
LeftShoulder1  0.0248356 0.990923 -10.8121
LeftArm  -18.0221 13.2813 -66.4884
LeftForeArm  28.411 -15.5238 -2.8017
LeftHand  0.080679 3.07568 2.41797
HEad  -5.7908 -12.55 -3.22904
RightUpLeg  -8.37988 -7.79268 6.4351
RightLeg  14.5813 5.47382 1.05329
RightFoot  -6.78791 -0.0600094 -0.634368
RightToes  -14.4713 -0.0548248 -0.133479
20
root  -13.121 33.5874 -29.0786 4.40601 23.8423 -1.87019
LeftUpLeg  -6.26646 7.91865 10.6705
LeftLeg  17.9602 9.66927 2.44555
LeftFoot  -10.3135 -0.164181 -1.81912
LeftToes  -21.0437 1.92152e-006 4.03786e-008
Spine  0.681022 -0.286395 0.871656
Spine1  1.18058 -0.72061 1.90629
RightShoulder  0.0264202 3.37768 5.98565
RightArm  -33.8189 -24.2122 71.6065
RightForeArm  31.7921 18.8752 3.44862
RightHand  0.865605 -11.2287 -8.41346
LeftShoulder1  0.0243441 1.13067 -10.8073
LeftArm  -18.4304 13.8824 -66.5012
LeftForeArm  28.9028 -15.2003 -2.74023
LeftHand  0.0811804 3.06042 2.44167
HEad  -6.02874 -12.4574 -3.63343
RightUpLeg  -8.35271 -8.52647 6.33151
RightLeg  15.0097 6.42075 1.28438
RightFoot  -7.46454 -0.0784769 -0.825515
RightToes  -14.6244 -0.0548248 -0.132887
21
root  -13.0983 33.5329 -28.863 4.39432 23.9667 -1.90844
LeftUpLeg  -7.08196 6.91023 10.6865
LeftLeg  20.3235 9.24292 2.74632
LeftFoot  -11.7658 -0.206293 -2.00191
LeftToes  -19.203 1.92152e-006 4.03786e-008
Spine  0.726763 -0.361842 1.00078
Spine1  1.27874 -0.873863 2.14888
RightShoulder  0.026775 3.33308 6.35957
RightArm  -34.352 -25.354 70.6217
RightForeArm  32.0889 18.1324 3.30272
RightHand  0.859713 -11.1924 -8.38224
LeftShoulder1  0.0229329 1.12031 -10.6735
LeftArm  -19.3382 14.3285 -66.9248
LeftForeArm  29.4006 -14.9108 -2.68534
LeftHand  0.0804314 3.12164 2.44541
HEad  -6.71605 -12.7658 -3.63678
RightUpLeg  -8.1666 -9.60825 6.36029
RightLeg  15.5169 7.49051 1.56594
RightFoot  -8.324 -0.106407 -1.08472
RightToes  -14.4654 -0.0548248 -0.132678
22
root  -13.0552 33.4639 -28.6538 4.10183 24.2663 -2.13955
LeftUpLeg  -8.88068 5.83918 10.7031
LeftLeg  24.8464 7.67409 2.95665
LeftFoot  -13.8018 -0.241727 -1.99707
LeftToes  -12.6903 1.92152e-006 4.03786e-008
Spine  0.907924 -0.342772 1.2277
Spine1  1.65032 -0.847067 2.5806
RightShoulder  0.0283691 3.35468 6.7597
RightArm  -35.0455 -26.2532 69.3784
RightForeArm  32.501 17.1815 3.11779
RightHand  0.873739 -11.2072 -8.5127
LeftShoulder1  0.0210537 1.09157 -10.4602
LeftArm  -19.9153 14.472 -67.7259
LeftForeArm  29.4702 -14.7195 -2.64928
LeftHand  0.080388 3.1363 2.54995
HEad  -7.6249 -13.5701 -3.44735
RightUpLeg  -7.74675 -10.7255 6.49311
RightLeg  15.9603 8.40272 1.82292
RightFoot  -9.16476 -0.138633 -1.35212
RightToes  -14.5617 -0.0548248 -0.132941
23
root  -13.0082 33.4131 -28.4742 3.77124 24.8741 -2.28528
LeftUpLeg  -11.4499 3.5745 10.2709
LeftLeg  30.7279 7.07309 3.59341
LeftFoot  -13.9574 -0.239304 -1.9548
LeftToes  -12.061 1.92152e-006 4.03786e-008
Spine  1.14694 -0.30457 1.46356
Spine1  2.13652 -0.793618 3.0404
RightShoulder  0.0333758 3.52235 7.28325
RightArm  -36.2092 -26.7468 67.9688
RightForeArm  33.4331 15.5922 2.81282
RightHand  0.926845 -11.4439 -8.85515
LeftShoulder1  0.0190006 1.09098 -10.2773
LeftArm  -19.9953 14.4841 -68.6651
LeftForeArm  29.1035 -14.7967 -2.664
LeftHand  0.0792571 3.16617 2.61992
HEad  -8.36626 -14.8022 -2.99335
RightUpLeg  -7.205 -11.3705 6.54965
RightLeg  16.1514 8.56213 1.88699
RightFoot  -9.83213 -0.1602 -1.48491
RightToes  -14.618 -0.0548248 -0.133765
24
root  -12.9133 33.408 -28.312 3.39441 25.3563 -2.19631
LeftUpLeg  -14.7135 1.59323 9.17867
LeftLeg  37.8922 6.86836 4.64326
LeftFoot  -13.9918 -0.252208 -2.05508
LeftToes  -10.5264 1.92152e-006 4.03786e-008
Spine  1.48239 -0.126677 1.63489
Spine1  2.8235 -0.46638 3.38524
RightShoulder  0.0399818 3.98438 7.76126
RightArm  -38.5255 -26.8216 66.7035
RightForeArm  35.4816 13.2045 2.36307
RightHand  1.01781 -11.7551 -9.48762
LeftShoulder1  0.0168139 1.16103 -10.0743
LeftArm  -19.5415 14.4 -69.6826
LeftForeArm  28.5325 -15.1878 -2.73804
LeftHand  0.0753906 3.0771 2.36923
HEad  -8.93665 -16.4297 -2.33439
RightUpLeg  -6.36532 -11.3719 6.3006
RightLeg  15.9563 8.20766 1.7803
RightFoot  -10.0761 -0.162142 -1.46161
RightToes  -14.8866 -0.0548248 -0.135238
25
root  -12.7734 33.4423 -28.1556 3.25754 25.1937 -1.68299
LeftUpLeg  -18.2598 1.53966 7.34704
LeftLeg  44.4593 6.10358 5.23354
LeftFoot  -13.4063 -0.225257 -1.91645
LeftToes  -10.2878 1.92152e-006 4.03786e-008
Spine  1.86067 0.327035 1.6511
Spine1  3.61193 0.42771 3.43972
RightShoulder  0.04462 4.72254 8.04414
RightArm  -41.3994 -26.7289 65.7262
RightForeArm  37.8066 10.561 1.87543
RightHand  1.13432 -12.2411 -10.1732
LeftShoulder1  0.0145335 1.28218 -9.93819
LeftArm  -18.5302 14.4519 -70.5126
LeftForeArm  27.7104 -16.0748 -2.90677
LeftHand  0.0708351 3.10801 2.23564
HEad  -9.41943 -18.1259 -1.58513
RightUpLeg  -5.56325 -11.0147 5.59809
RightLeg  15.7786 8.00504 1.71081
RightFoot  -10.1219 -0.162881 -1.43365
RightToes  -15.2348 -0.0565174 -0.137448
26
root  -12.6193 33.4969 -27.9915 3.44853 24.5079 -0.869873
LeftUpLeg  -21.7184 2.479 5.02888
LeftLeg  48.4067 4.71684 4.64919
LeftFoot  -12.3552 -0.157974 -1.45943
LeftToes  -11.2619 1.92152e-006 4.03786e-008
Spine  2.19202 0.904273 1.5289
Spine1  4.31306 1.59922 3.22063
RightShoulder  0.0468019 5.50498 8.11703
RightArm  -43.4883 -26.5051 65.1307
RightForeArm  39.4571 8.22775 1.45267
RightHand  1.28269 -12.9632 -10.879
LeftShoulder1  0.0121996 1.53002 -9.89164
LeftArm  -17.4915 14.8348 -71.0186
LeftForeArm  27.184 -17.2162 -3.12599
LeftHand  0.0629832 2.9938 2.03518
HEad  -9.89261 -19.396 -0.950633
RightUpLeg  -4.9702 -10.3195 4.63982
RightLeg  15.6221 7.94609 1.67575
RightFoot  -10.11 -0.16217 -1.42028
RightToes  -15.8859 -0.0597602 -0.142949
27
root  -12.4403 33.5565 -27.7957 3.8827 23.6365 0.109192
LeftUpLeg  -24.7647 4.29255 2.47258
LeftLeg  48.7119 3.17921 3.17055
LeftFoot  -11.0437 -0.0858271 -0.887789
LeftToes  -14.1418 1.92152e-006 4.03786e-008
Spine  2.51967 1.3684 1.31026
Spine1  4.99903 2.56876 2.79567
RightShoulder  0.0480094 5.98091 7.91539
RightArm  -44.4636 -25.7306 65.1267
RightForeArm  40.4344 6.6576 1.17134
RightHand  1.41383 -13.7034 -11.3506
LeftShoulder1  0.00940851 1.90859 -9.84028
LeftArm  -16.8731 15.6682 -71.2815
LeftForeArm  27.023 -18.9656 -3.46732
LeftHand  0.0571058 2.75167 2.00231
HEad  -10.8105 -20.1371 -0.522872
RightUpLeg  -4.45653 -9.62899 3.50673
RightLeg  15.3692 8.06559 1.66385
RightFoot  -10.0998 -0.160395 -1.43752
RightToes  -16.5996 -0.0636356 -0.148936
28
root  -12.258 33.5993 -27.561 4.36006 22.8421 0.948389
LeftUpLeg  -27.1768 6.34989 0.0374511
LeftLeg  45.326 2.45798 2.17759
LeftFoot  -9.0173 -0.0417161 -0.529037
LeftToes  -15.8132 1.92152e-006 4.03786e-008
Spine  2.85461 1.63539 1.09687
Spine1  5.68664 3.15233 2.36743
RightShoulder  0.0487204 6.11715 7.66529
RightArm  -44.6166 -24.5996 65.5253
RightForeArm  40.7188 6.51328 1.14536
RightHand  1.43881 -14.0531 -11.2588
LeftShoulder1  0.00710378 2.1305 -9.81382
LeftArm  -16.8955 16.7835 -71.3512
LeftForeArm  27.1354 -20.5211 -3.77703
LeftHand  0.049436 2.48358 1.90503
HEad  -12.0283 -20.5029 -0.340778
RightUpLeg  -3.90154 -8.92236 2.5313
RightLeg  14.895 8.12461 1.60635
RightFoot  -10.1165 -0.161446 -1.44639
RightToes  -17.3702 -0.0672887 -0.155348
29
root  -12.0691 33.608 -27.2614 4.70263 22.0277 1.38966
LeftUpLeg  -28.7773 8.25722 -1.92278
LeftLeg  38.8571 2.8159 1.97787
LeftFoot  -5.56493 -0.0164161 -0.337778
LeftToes  -16.3538 1.92152e-006 4.03786e-008
Spine  3.1882 1.75869 0.980725
Spine1  6.36423 3.44478 2.12017
RightShoulder  0.0492385 6.01444 7.40782
RightArm  -44.1058 -23.262 66.1217
RightForeArm  40.2805 7.63488 1.34566
RightHand  1.31516 -13.6617 -10.571
LeftShoulder1  0.00575363 2.22994 -9.7598
LeftArm  -17.0785 17.9288 -71.4092
LeftForeArm  27.1784 -21.2348 -3.92132
LeftHand  0.0488391 2.41013 1.96764
HEad  -13.1822 -20.4483 -0.269131
RightUpLeg  -3.21866 -8.40091 1.91264
RightLeg  14.3141 8.34321 1.56205
RightFoot  -10.2676 -0.169121 -1.50482
RightToes  -17.9281 -0.0702122 -0.159958
30
root  -11.8667 33.5713 -26.892 5.03788 20.9876 1.49738
LeftUpLeg  -29.6255 9.9358 -3.36098
LeftLeg  30.1837 3.70926 1.84386
LeftFoot  -0.857416 -0.000434328 -0.0580546
LeftToes  -17.9407 1.92152e-006 4.03786e-008
Spine  3.45043 1.86373 0.920275
Spine1  6.89548 3.70194 1.96942
RightShoulder  0.0499578 5.64908 7.30639
RightArm  -42.145 -21.7678 66.6163
RightForeArm  38.9245 9.54567 1.6903
RightHand  1.14545 -12.9951 -9.65713
LeftShoulder1  0.00446756 2.17103 -9.61049
LeftArm  -17.5386 18.9622 -71.5832
LeftForeArm  27.3948 -20.801 -3.83336
LeftHand  0.0500237 2.47787 1.94201
HEad  -14.0923 -20.1543 -0.174374
RightUpLeg  -2.70051 -8.06002 1.56645
RightLeg  14.0785 8.94548 1.63611
RightFoot  -10.6935 -0.192803 -1.68242
RightToes  -18.4172 -0.0731631 -0.163976
